<svg width="248" height="34" viewBox="0 0 248 34" fill="none" xmlns="http://www.w3.org/2000/svg">
<g clip-path="url(#clip0_32_10110)">
<path fill-rule="evenodd" clip-rule="evenodd" d="M234.186 10.8785C238.788 10.8741 243.39 10.8848 247.992 10.8741C248.006 11.9923 247.998 13.1105 248.001 14.2287C246.381 14.2262 244.764 14.2287 243.147 14.2287C243.147 19.0988 243.147 23.9676 243.147 28.8376C241.776 28.8376 240.408 28.8376 239.039 28.8376C239.039 23.9676 239.039 19.0988 239.039 14.2287C237.422 14.2287 235.802 14.2262 234.188 14.2313C234.183 13.1124 234.183 11.9942 234.186 10.8785ZM214.313 10.9158C215.688 10.8236 217.069 10.9025 218.452 10.8829C216.572 13.6617 214.581 16.3616 212.691 19.1322C214.79 22.4143 217.103 25.5802 219.262 28.8351C217.7 28.842 216.142 28.8332 214.584 28.8395C212.573 25.8845 210.518 22.963 208.49 20.0187C208.513 22.9586 208.496 25.8953 208.499 28.8326C207.12 28.8389 205.74 28.8414 204.363 28.83C204.38 22.8437 204.349 16.8573 204.377 10.8709C205.751 10.8842 207.122 10.8753 208.499 10.8772C208.502 13.6365 208.496 16.3957 208.502 19.155C210.437 16.4103 212.35 13.6422 214.313 10.9158ZM224.406 14.7648C223.574 15.7006 223.459 17.0297 223.364 18.2357C225.296 18.2401 227.223 18.2382 229.156 18.2357C229.111 16.8295 229.094 15.0875 227.813 14.2262C226.749 13.6182 225.207 13.7672 224.406 14.7648ZM220.583 13.7123C219.346 15.7706 219.047 18.266 219.128 20.6413C219.209 22.6795 219.636 24.8111 220.89 26.4471C222.032 28.0067 223.892 28.8458 225.738 29.0902C228.26 29.3996 230.949 29.0636 233.138 27.66C233.149 26.509 233.138 25.3579 233.147 24.2062C231.698 25.0675 230.089 25.6673 228.416 25.8081C227.129 25.9136 225.696 25.8081 224.668 24.9204C223.68 24.0459 223.476 22.6397 223.361 21.3813C226.682 21.3504 230.008 21.3769 233.331 21.3681C233.32 19.2503 233.445 17.0777 232.811 15.03C232.423 13.6485 231.627 12.3585 230.446 11.5636C228.907 10.5464 226.972 10.3658 225.196 10.6297C223.308 10.8716 221.563 12.034 220.583 13.7123ZM193.109 13.9825C191.876 14.2332 191.127 15.4436 190.824 16.6123C190.393 18.3916 190.406 20.2568 190.611 22.067C190.783 23.3608 191.186 24.8193 192.363 25.5183C193.735 26.199 195.663 25.8302 196.457 24.4089C197.266 23.0205 197.317 21.3359 197.351 19.763C197.313 18.1485 197.236 16.4084 196.329 15.0287C195.648 13.9629 194.246 13.6946 193.109 13.9825ZM193.233 10.8147C195.232 10.1448 197.601 10.6285 199.108 12.1704C200.801 13.8512 201.423 16.3357 201.574 18.6795C201.722 21.3093 201.432 24.1147 200.013 26.3726C198.832 28.2536 196.645 29.3598 194.479 29.1842C192.84 29.1249 191.37 28.1058 190.462 26.7432C190.481 29.1621 190.472 31.5804 190.466 33.9994C189.096 33.9994 187.728 33.9975 186.361 33.9994C186.367 26.2956 186.365 18.5911 186.361 10.8867C187.63 10.8716 188.9 10.8823 190.171 10.876C190.229 11.6387 190.302 12.4008 190.372 13.161C191.101 12.1438 192.032 11.2011 193.233 10.8147ZM174.469 21.118C173.218 21.781 173.139 23.5496 173.658 24.736C174.206 25.918 175.674 26.144 176.803 25.9028C177.654 25.786 178.378 25.2569 178.926 24.5977C178.917 23.2073 178.922 21.8183 178.922 20.4298C177.43 20.498 175.828 20.3666 174.469 21.118ZM173.822 10.8873C176.018 10.4637 178.405 10.3911 180.49 11.3312C182.079 12.0782 182.901 13.8707 182.995 15.5976C183.14 20.0086 182.835 24.4354 183.243 28.8376C181.89 28.8376 180.537 28.8376 179.187 28.8376C179.07 28.3432 178.963 27.8495 178.871 27.3525C177.945 28.2573 176.788 28.9494 175.491 29.0327C173.746 29.2436 171.764 28.921 170.528 27.5236C169.246 26.1352 168.934 24.0414 169.244 22.2097C169.53 20.6173 170.722 19.3274 172.14 18.7016C174.256 17.7065 176.637 17.6162 178.927 17.6339C178.899 16.599 179.046 15.3425 178.218 14.576C177.262 13.8512 175.976 13.932 174.86 14.0753C173.285 14.3235 171.707 14.8197 170.386 15.7599C170.405 14.6 170.356 13.4401 170.405 12.2821C171.379 11.5244 172.647 11.21 173.822 10.8873ZM145.828 4.01321C147.676 4.01068 149.525 4.0151 151.376 4.01068C152.965 10.1025 154.572 16.1899 156.191 22.2729C157.836 16.1899 159.443 10.0962 161.088 4.01321C162.897 4.01068 164.709 4.01763 166.52 4.00879C166.516 12.284 166.52 20.5573 166.518 28.8326C165.201 28.8433 163.887 28.83 162.57 28.8414C162.57 22.6397 162.574 16.438 162.57 10.237C160.859 16.414 159.297 22.6403 157.646 28.8351C156.492 28.8395 155.337 28.8351 154.183 28.8395C152.559 22.629 150.884 16.4342 149.316 10.2105C149.194 16.4166 149.297 22.629 149.262 28.8376C148.114 28.8376 146.966 28.8376 145.821 28.8376C145.828 20.5643 145.815 12.2884 145.828 4.01321Z" fill="white"/>
<path fill-rule="evenodd" clip-rule="evenodd" d="M69.8744 10.8759C71.2487 10.8822 72.6224 10.874 73.9986 10.8822C73.9967 13.6371 73.9943 16.3919 74.001 19.1492C75.934 16.3919 77.8824 13.6484 79.8044 10.8847C81.1959 10.8759 82.5867 10.869 83.9776 10.8892C82.0256 13.6371 80.103 16.4077 78.1504 19.1562C80.3502 22.3852 82.5653 25.6041 84.7669 28.8306C83.2074 28.8457 81.6497 28.8306 80.0901 28.8394C78.0651 25.9242 76.0745 22.9806 74.0071 20.0963C73.9814 23.009 74.0053 25.9242 73.9967 28.8375C72.6181 28.8375 71.2401 28.8375 69.8615 28.8375C69.8725 22.8512 69.8468 16.8623 69.8744 10.8759ZM41.539 14.2331C41.5028 18.014 41.3857 21.9066 40.0905 25.4873C42.0321 25.481 43.9761 25.498 45.9177 25.4785C45.903 21.726 45.9177 17.9742 45.9116 14.2243C44.4532 14.235 42.9961 14.2217 41.539 14.2331ZM37.9906 10.8784C42.0002 10.8784 46.0091 10.8784 50.0205 10.881C50.0186 15.7491 50.0205 20.6173 50.0205 25.4873C50.6307 25.4873 51.2452 25.4873 51.8596 25.4873C51.8596 27.9675 51.8596 30.4502 51.8596 32.9303C50.5859 32.9259 49.3164 32.9347 48.0445 32.924C48.0488 31.564 48.0359 30.202 48.0531 28.842C44.9702 28.8243 41.8867 28.8552 38.8032 28.8268C38.7817 30.1932 38.786 31.5576 38.7989 32.924C37.5227 32.9347 36.2471 32.9259 34.9734 32.9303C34.9776 30.4502 34.9801 27.9719 34.9734 25.4917C35.3787 25.4873 35.7884 25.4854 36.1956 25.4829L36.3152 25.4172C36.9659 23.9189 37.3007 22.3018 37.5313 20.6854C37.9802 17.4381 38.0164 14.1516 37.9906 10.8784ZM19.481 10.881C20.859 10.881 22.2401 10.8696 23.62 10.8898C23.6095 13.2557 23.6157 15.6216 23.6157 17.99C25.4548 17.9919 27.2946 17.9874 29.1357 17.9919C29.1443 15.6171 29.1185 13.2424 29.1486 10.8696C30.5143 10.8892 31.8794 10.8696 33.2452 10.8829C33.2409 16.8673 33.2452 22.8537 33.2433 28.8375C31.8739 28.8375 30.5057 28.8375 29.1357 28.8375C29.1357 26.3378 29.1357 23.84 29.1357 21.3396C27.2946 21.3415 25.4548 21.3371 23.6157 21.3415C23.6114 23.8393 23.6181 26.3372 23.6138 28.8369C22.2352 28.8369 20.8572 28.8369 19.481 28.8369C19.481 22.8512 19.481 16.8648 19.481 10.881ZM87.0532 12.6161C85.2563 14.4023 84.578 17.0536 84.5308 19.5559C84.5051 21.9287 84.8276 24.4657 86.2571 26.4123C87.4113 28.0161 89.3081 28.8899 91.2007 29.1034C93.157 29.3117 95.2869 29.2505 96.9893 28.1076C96.9832 26.9528 96.9893 25.7967 96.985 24.6412C95.5089 25.6742 93.6268 26.0669 91.8771 25.7197C90.5862 25.4564 89.6258 24.3362 89.2505 23.0791C88.6918 21.2468 88.6685 19.2585 89.0285 17.3851C89.3143 15.876 90.3065 14.3689 91.8391 14.0197C93.5887 13.6244 95.4279 14.1226 96.9875 14.9643C96.9875 13.7734 96.9813 12.5832 96.9936 11.3943C95.6812 10.6827 94.1646 10.5596 92.7112 10.5204C90.6696 10.4762 88.5256 11.1045 87.0532 12.6161ZM57.8899 15.1228C57.3263 16.0497 57.2049 17.1654 57.1215 18.2312C59.0526 18.2444 60.9814 18.2356 62.9125 18.2356C62.8825 16.8736 62.8482 15.2415 61.7112 14.3209C60.5184 13.495 58.6424 13.8157 57.8899 15.1228ZM55.2283 12.5586C56.7222 10.9201 59.0306 10.3291 61.1519 10.564C62.9782 10.6764 64.856 11.5749 65.7906 13.255C67.2563 15.6695 67.0963 18.6327 67.0877 21.3636C63.7674 21.3768 60.4454 21.3611 57.1258 21.3705C57.2386 22.6883 57.4864 24.1935 58.5853 25.0434C59.55 25.7859 60.8256 25.8826 61.9884 25.8257C63.7398 25.7089 65.441 25.1135 66.9325 24.1689C66.8859 25.3263 67.0116 26.4975 66.8706 27.6467C64.8799 28.9847 62.4048 29.3269 60.0725 29.1495C58.1285 29.0042 56.1274 28.2661 54.8469 26.6889C53.2229 24.7384 52.8372 22.0474 52.8752 19.5603C52.939 17.0687 53.483 14.3998 55.2283 12.5586ZM6.40495 4.44818C8.11413 3.98221 9.89383 4.01315 11.6453 4.01315C13.1031 4.01757 14.5602 4.00241 16.0197 4.02388C16.0044 12.2947 16.0173 20.5661 16.013 28.8369C14.6154 28.8369 13.2202 28.8369 11.8244 28.8369C11.8268 21.6888 11.8244 14.5419 11.8244 7.3937C9.88279 7.3716 7.70017 7.20933 6.09771 8.56243C4.36278 10.0342 4.43576 12.7562 5.28452 14.7067C6.41967 16.9166 8.72617 18.0196 10.6169 19.4277C8.6581 22.6062 6.55888 25.6887 4.5486 28.8325C3.03199 28.8432 1.51661 28.8325 0 28.8388C1.81772 26.0309 3.66365 23.2477 5.48138 20.4424C3.49071 19.0166 1.56199 17.1799 0.891689 14.6978C0.279649 12.3566 0.432966 9.68571 1.76007 7.62479C2.8014 5.96419 4.57251 4.91858 6.40495 4.44818Z" fill="white"/>
<path fill-rule="evenodd" clip-rule="evenodd" d="M116.786 17.5411C119.897 13.178 122.908 8.74303 125.991 4.35791C127.382 4.92681 128.773 5.50455 130.166 6.07597C130.785 6.38346 131.564 6.50848 132.068 6.97446C131.541 9.68509 130.86 12.3654 130.292 15.0672C132.187 13.4546 134.056 11.8072 135.951 10.1902C136.868 12.3717 137.274 14.7597 137.156 17.1325L137.139 17.1502C134.009 20.0282 130.94 22.9806 127.778 25.8207C126.174 24.9462 124.548 24.114 122.907 23.3121C123.526 20.801 124.136 18.288 124.74 15.775C121.843 20.1532 119.047 24.604 116.145 28.9777C114.103 28.1279 112.055 27.2906 110.011 26.4471C110.638 23.9164 111.234 21.3769 111.87 18.8462C110.38 20.8894 108.893 22.9345 107.414 24.9841C106.256 23.0311 105.468 20.8408 105.223 18.5608C107.752 15.4612 110.237 12.3237 112.738 9.20206C112.892 9.05937 113.05 8.6862 113.31 8.88826C114.887 9.66552 116.447 10.4876 118.007 11.3091C117.582 13.3826 117.19 15.4631 116.786 17.5411Z" fill="black"/>
<path fill-rule="evenodd" clip-rule="evenodd" d="M116.146 28.9777C119.048 24.604 121.843 20.1532 124.741 15.775C124.137 18.288 123.527 20.801 122.908 23.3121C124.548 24.114 126.175 24.9462 127.779 25.8207C130.941 22.98 134.01 20.0276 137.14 17.1502C136.982 23.189 133.25 28.8969 127.93 31.4143C124.485 33.0749 120.467 33.4115 116.808 32.3501C112.918 31.2344 109.498 28.5433 107.415 24.9841C108.893 22.9345 110.381 20.8894 111.87 18.8462C111.234 21.3769 110.639 23.9164 110.011 26.4471C112.055 27.2906 114.104 28.1279 116.146 28.9777Z" fill="#FED104"/>
<path fill-rule="evenodd" clip-rule="evenodd" d="M113.885 1.78557C117.71 -0.262081 122.362 -0.547477 126.422 0.922438C130.686 2.44223 134.243 5.88909 135.951 10.1902C134.057 11.8073 132.188 13.4546 130.293 15.0672C130.861 12.3654 131.541 9.68511 132.068 6.97447C131.565 6.5085 130.786 6.38348 130.167 6.07598C128.774 5.50456 127.383 4.92682 125.991 4.35792C122.908 8.74241 119.898 13.178 116.787 17.5411C117.19 15.4631 117.583 13.3826 118.007 11.3091C116.448 10.487 114.888 9.66553 113.311 8.88827C113.051 8.68622 112.893 9.05938 112.739 9.20208C110.238 12.3238 107.752 15.4606 105.224 18.5608C104.94 15.6298 105.225 12.6047 106.418 9.90105C107.891 6.41442 110.573 3.47711 113.885 1.78557Z" fill="#FED104"/>
</g>
<defs>
<clipPath id="clip0_32_10110">
<rect width="248" height="34" fill="white"/>
</clipPath>
</defs>
</svg>
